<?xml version="1.0" encoding="utf-8"?>
<!-- Generator: Adobe Illustrator 24.3.0, SVG Export Plug-In . SVG Version: 6.00 Build 0)  -->
<svg version="1.1" id="Ebene_1" xmlns="http://www.w3.org/2000/svg" xmlns:xlink="http://www.w3.org/1999/xlink" x="0px" y="0px"
	 viewBox="0 0 1920 1080" style="enable-background:new 0 0 1920 1080;" xml:space="preserve">
<style type="text/css">
	
		.st0{fill-rule:evenodd;clip-rule:evenodd;fill:#ACA088;stroke:#ACA088;stroke-width:0.9999;stroke-linejoin:round;stroke-miterlimit:3.9995;}
</style>
<g id="Ebene_1_1_">
	<path class="st0" d="M662.1,429.5c1.5,6.5-6.5-37.4-6.5-49.3c0-33.6,2.7-70.6,17.8-100.9c40.5-81.1,154.1-129,239.7-105.6
		c88.1,24,129.5,108.8,146,191.1c6.4,32.1,22.4,75.5,49.8,96.1c58,43.5,155.2,42.1,192.3,116.3c26.5,53,40.6,133.9,7.1,187.5
		c-79.4,127-259.1,187.3-396.4,118.7c-58-29-81.8-103.9-138.9-136.5c-51.9-29.7-115.5-21-165-58.2c-71.6-53.7-39.2-130.2,4.7-188.7
		c12.3-16.4,22.3-33.7,34.4-49.8C652.7,443.2,660.1,420.9,662.1,429.5z"/>
</g>
</svg>
