<?xml version="1.0" encoding="utf-8"?>
<!-- Generator: Adobe Illustrator 24.3.0, SVG Export Plug-In . SVG Version: 6.00 Build 0)  -->
<svg version="1.1" id="Ebene_1" xmlns:vectornator="http://vectornator.io"
	 xmlns="http://www.w3.org/2000/svg" xmlns:xlink="http://www.w3.org/1999/xlink" x="0px" y="0px" viewBox="0 0 595.3 841.9"
	 style="enable-background:new 0 0 595.3 841.9;" xml:space="preserve">
<style type="text/css">
	
		.st0{fill-rule:evenodd;clip-rule:evenodd;fill:#ACA088;stroke:#ACA088;stroke-width:0.9999;stroke-linejoin:round;stroke-miterlimit:3.9995;}
</style>
<g id="Ebene_1_1_" vectornator:layerName="Ebene 1">
	<path class="st0" d="M139.5,309.6c0.9,3.9-3.9-22.6-3.9-29.7c0-20.3,1.6-42.6,10.7-60.8c24.5-48.9,92.9-77.8,144.6-63.7
		c53.1,14.5,78.1,65.6,88,115.2c3.9,19.4,13.5,45.6,30.1,58c35,26.2,93.6,25.4,115.9,70.1c16,32,24.5,80.7,4.3,113.1
		c-47.9,76.6-156.3,113-239,71.6c-34.9-17.5-49.3-62.6-83.7-82.3c-31.3-17.9-69.6-12.7-99.5-35.1c-43.2-32.4-23.6-78.5,2.9-113.8
		c7.4-9.9,13.4-20.3,20.8-30.1C133.8,317.8,138.2,304.4,139.5,309.6z"/>
</g>
</svg>
