<?xml version="1.0" encoding="utf-8"?>
<!-- Generator: Adobe Illustrator 24.3.0, SVG Export Plug-In . SVG Version: 6.00 Build 0)  -->
<svg version="1.1" id="Ebene_1" xmlns:vectornator="http://vectornator.io"
	 xmlns="http://www.w3.org/2000/svg" xmlns:xlink="http://www.w3.org/1999/xlink" x="0px" y="0px" viewBox="0 0 595.3 841.9"
	 style="enable-background:new 0 0 595.3 841.9;" xml:space="preserve">
<style type="text/css">
	
		.st0{fill-rule:evenodd;clip-rule:evenodd;fill:#ACA088;stroke:#ACA088;stroke-width:0.9999;stroke-linejoin:round;stroke-miterlimit:3.9995;}
</style>
<g id="Ebene_1_1_" vectornator:layerName="Ebene 1">
	<path class="st0" d="M215.7,370.8c0.5,2-2-11.3-2-14.8c0-10.1,0.8-21.2,5.4-30.3c12.2-24.4,46.3-38.8,72.1-31.8
		c26.5,7.2,39,32.7,43.9,57.5c1.9,9.6,6.7,22.7,15,28.9c17.4,13.1,46.7,12.7,57.8,35c8,15.9,12.2,40.3,2.1,56.4
		c-23.9,38.2-77.9,56.3-119.2,35.7c-17.4-8.7-24.6-31.2-41.8-41c-15.6-8.9-34.7-6.3-49.6-17.5c-21.5-16.2-11.8-39.1,1.4-56.7
		c3.7-4.9,6.7-10.1,10.3-15C212.9,374.9,215.1,368.2,215.7,370.8z"/>
</g>
</svg>
